<?xml version="1.0" encoding="UTF-8"?>
<svg width="512px" height="512px" viewBox="0 0 512 512" version="1.1" xmlns="http://www.w3.org/2000/svg" xmlns:xlink="http://www.w3.org/1999/xlink">
    <!-- Generator: Sketch 51.2 (57519) - http://www.bohemiancoding.com/sketch -->
    <title>icon</title>
    <desc>Created with Sketch.</desc>
    <defs>
        <rect id="path-1" x="35" y="35" width="442" height="442" rx="6"></rect>
        <filter x="-1.6%" y="-1.1%" width="103.2%" height="103.2%" filterUnits="objectBoundingBox" id="filter-2">
            <feOffset dx="0" dy="2" in="SourceAlpha" result="shadowOffsetOuter1"></feOffset>
            <feGaussianBlur stdDeviation="2" in="shadowOffsetOuter1" result="shadowBlurOuter1"></feGaussianBlur>
            <feColorMatrix values="0 0 0 0 0   0 0 0 0 0   0 0 0 0 0  0 0 0 0.5 0" type="matrix" in="shadowBlurOuter1"></feColorMatrix>
        </filter>
    </defs>
    <g id="icon" stroke="none" stroke-width="1" fill="none" fill-rule="evenodd">
        <rect id="Rectangle" fill="#B269A4" fill-rule="nonzero" x="0" y="0" width="512" height="512"></rect>
        <g id="Rectangle-2" fill-rule="nonzero">
            <use fill="black" fill-opacity="1" filter="url(#filter-2)" xlink:href="#path-1"></use>
            <use fill="#FFFFFF" xlink:href="#path-1"></use>
        </g>
        <g id="woocommerce" transform="translate(90.000000, 74.000000)" fill-rule="nonzero">
            <path d="M10.4030069,0 L102.42835,0 C108.320745,0 113,4.71979434 113,10.6632391 L113,46.1491003 C113,52.092545 108.320745,56.8123393 102.42835,56.8123393 L69.5002614,56.8123393 L74.0062104,68 L54.0760513,56.8123393 L10.5763127,56.8123393 C4.6839178,56.8123393 0.00466305254,52.092545 0.00466305254,46.1491003 L0.00466305254,10.6632391 C-0.168642679,4.89460154 4.51061207,0 10.4030069,0 Z" id="Shape" fill="#9B5C8F"></path>
            <path d="M5.74701648,9.51365959 C6.43224587,8.64629637 7.2887826,8.12587845 8.65924137,8.12587845 C11.0575442,7.9524058 12.2566956,8.99324166 12.5993103,11.4218587 C13.9697691,21.1363267 15.5115352,29.2895409 17.2246087,36.054974 L27.1604348,16.7995106 C28.0169715,15.0647842 29.2161229,14.197421 30.5865817,14.0239483 C32.6422699,13.8504757 33.8414213,15.2382568 34.3553433,17.8403465 C35.5544947,23.911889 36.9249535,29.2895409 38.638027,33.626357 C39.8371784,21.8302173 41.8928666,13.3300577 44.6337841,8.12587845 C45.3190135,6.91156994 46.3468576,6.21767937 47.7173163,6.04420673 C48.7451604,5.87073408 49.7730045,6.21767937 50.6295412,6.91156994 C51.486078,7.60546052 52,8.47282373 52,9.51365959 C52,10.3810228 51.8286927,11.0749134 51.486078,11.768804 C49.7730045,15.0647842 48.2312384,20.6159088 47.032087,28.4221777 C45.8329355,35.8815014 45.4903208,41.7795712 45.8329355,46.1163873 C46.0042429,47.3306958 45.6616282,48.3715317 45.3190135,49.2388949 C44.8050915,50.2797307 43.9485547,50.8001487 42.9207106,50.9736213 C41.7215592,51.147094 40.5224078,50.4532034 39.3232564,49.2388949 C35.0405727,44.9020788 31.6144258,38.3101184 29.2161229,29.4630136 C26.303898,35.3610834 24.0769025,39.8713721 22.7064438,42.8204071 C19.9655262,48.0245864 17.7385307,50.8001487 15.8541499,50.8001487 C14.6549985,50.9736213 13.6271544,49.7593128 12.5993103,47.6776411 C10.2010075,41.6060986 7.80270464,29.9834315 5.0617871,12.6361672 C4.89047975,11.4218587 5.0617871,10.3810228 5.74701648,9.51365959 Z" id="Shape" fill="#FFFFFF"></path>
            <path d="M104.720779,16.7462687 C102.967532,13.7860697 100.512987,12.0447761 97.1818182,11.3482587 C96.3051948,11.1741294 95.4285714,11 94.7272727,11 C90.1688312,11 86.6623377,13.2636816 83.6818182,17.9651741 C81.2272727,21.9701493 80,26.3233831 80,31.0248756 C80,34.681592 80.7012987,37.641791 82.2792208,40.2537313 C84.0324675,43.2139303 86.487013,44.9552239 89.8181818,45.6517413 C90.6948052,45.8258706 91.5714286,46 92.2727273,46 C96.8311688,46 100.512987,43.7363184 103.318182,39.0348259 C105.772727,35.0298507 107,30.6766169 107,25.9751244 C107,22.318408 106.298701,19.358209 104.720779,16.7462687 Z M98.9350649,29.6318408 C98.2337662,32.7661692 97.1818182,35.0298507 95.4285714,36.4228856 C94.025974,37.641791 92.7987013,38.1641791 91.5714286,37.9900498 C90.5194805,37.8159204 89.4675325,36.7711443 88.7662338,35.0298507 C88.2402597,33.6368159 87.8896104,32.0696517 87.8896104,30.8507463 C87.8896104,29.6318408 88.0649351,28.5870647 88.2402597,27.5422886 C88.5909091,25.6268657 89.4675325,23.7114428 90.6948052,21.9701493 C92.2727273,19.7064677 93.8506494,18.8358209 95.6038961,19.0099502 C96.6558442,19.1840796 97.7077922,20.2288557 98.4090909,21.9701493 C98.9350649,23.3631841 99.2857143,24.9303483 99.2857143,26.1492537 C99.1103896,27.3681592 99.1103896,28.5870647 98.9350649,29.6318408 Z" id="Shape" fill="#FFFFFF"></path>
            <path d="M76.7207792,16.7462687 C74.9675325,13.7860697 72.512987,12.0447761 69.1818182,11.3482587 C68.3051948,11.1741294 67.4285714,11 66.7272727,11 C62.1688312,11 58.6623377,13.2636816 55.6818182,17.9651741 C53.2272727,21.9701493 52,26.3233831 52,31.0248756 C52,34.681592 52.7012987,37.641791 54.2792208,40.2537313 C56.0324675,43.2139303 58.487013,44.9552239 61.8181818,45.6517413 C62.6948052,45.8258706 63.5714286,46 64.2727273,46 C68.8311688,46 72.512987,43.7363184 75.3181818,39.0348259 C77.7727273,35.0298507 79,30.6766169 79,25.9751244 C79,22.318408 78.2987013,19.358209 76.7207792,16.7462687 Z M70.7597403,29.6318408 C70.0584416,32.7661692 69.0064935,35.0298507 67.2532468,36.4228856 C65.8506494,37.641791 64.6233766,38.1641791 63.3961039,37.9900498 C62.3441558,37.8159204 61.2922078,36.7711443 60.5909091,35.0298507 C60.0649351,33.6368159 59.7142857,32.0696517 59.7142857,30.8507463 C59.7142857,29.6318408 59.8896104,28.5870647 60.0649351,27.5422886 C60.4155844,25.6268657 61.2922078,23.7114428 62.5194805,21.9701493 C64.0974026,19.7064677 65.6753247,18.8358209 67.4285714,19.0099502 C68.4805195,19.1840796 69.5324675,20.2288557 70.2337662,21.9701493 C70.7597403,23.3631841 71.1103896,24.9303483 71.1103896,26.1492537 C71.1103896,27.3681592 71.1103896,28.5870647 70.7597403,29.6318408 Z" id="Shape" fill="#FFFFFF"></path>
            <path d="M123.689935,15.78125 C120.563312,18.96875 119,22.8645833 119,27.6458333 C119,32.78125 120.563312,37.03125 123.516234,40.21875 C126.642857,43.40625 130.637987,45 135.501623,45 C136.891234,45 138.628247,44.8229167 140.36526,44.2916667 L140.36526,36.6770833 C138.801948,37.2083333 137.412338,37.3854167 136.196429,37.3854167 C133.76461,37.3854167 131.853896,36.5 130.290584,34.90625 C128.727273,33.1354167 128.032468,31.0104167 128.032468,28 C128.032468,25.34375 128.727273,23.0416667 130.290584,21.4479167 C131.853896,19.6770833 133.590909,18.7916667 135.849026,18.7916667 C137.238636,18.7916667 138.801948,18.96875 140.538961,19.5 L140.538961,11.8854167 C138.975649,11.53125 137.238636,11.3541667 135.501623,11.3541667 C130.637987,11 126.816558,12.59375 123.689935,15.78125 Z M155.824675,11 C151.482143,11 148.181818,12.4166667 145.75,15.4270833 C143.318182,18.2604167 142.102273,22.3333333 142.102273,27.6458333 C142.102273,33.3125 143.318182,37.5625 145.75,40.5729167 C148.181818,43.5833333 151.655844,45 156.172078,45 C160.51461,45 163.988636,43.40625 166.246753,40.5729167 C168.678571,37.5625 169.894481,33.3125 169.894481,28 C169.894481,22.6875 168.678571,18.4375 166.246753,15.6041667 C163.814935,12.59375 160.340909,11 155.824675,11 Z M159.472403,35.6145833 C158.603896,36.8541667 157.387987,37.5625 155.824675,37.5625 C154.261364,37.5625 153.219156,36.8541667 152.524351,35.6145833 C151.655844,34.375 151.308442,31.71875 151.308442,27.6458333 C151.308442,21.4479167 152.871753,18.4375 155.998377,18.4375 C159.298701,18.4375 160.862013,21.625 160.862013,27.8229167 C160.862013,31.71875 160.340909,34.375 159.472403,35.6145833 Z M192.823052,12.0625 L191.086039,19.3229167 C190.738636,21.09375 190.217532,23.0416667 189.87013,24.9895833 L189.001623,29.9479167 C188.133117,24.9895833 186.917208,18.96875 185.353896,12.0625 L174.584416,12.0625 L170.589286,44.2916667 L178.579545,44.2916667 L180.837662,22.15625 L186.396104,44.2916667 L192.128247,44.2916667 L197.339286,22.15625 L199.597403,44.2916667 L208.108766,44.2916667 L203.766234,12.0625 C203.766234,12.0625 192.823052,12.0625 192.823052,12.0625 Z M231.38474,12.0625 L229.647727,19.3229167 C229.300325,21.09375 228.779221,23.0416667 228.431818,24.9895833 L227.563312,29.9479167 C226.694805,24.9895833 225.478896,18.96875 223.915584,12.0625 L213.146104,12.0625 L209.150974,44.2916667 L217.141234,44.2916667 L219.399351,22.15625 L224.957792,44.2916667 L230.689935,44.2916667 L235.900974,22.15625 L238.159091,44.2916667 L246.670455,44.2916667 L242.327922,12.0625 L231.38474,12.0625 Z M257.613636,31.3645833 L265.082792,31.3645833 L265.082792,24.6354167 L257.613636,24.6354167 L257.613636,18.7916667 L266.298701,18.7916667 L266.298701,11.8854167 L249.102273,11.8854167 L249.102273,44.1145833 L266.298701,44.1145833 L266.298701,37.3854167 L257.613636,37.3854167 L257.613636,31.3645833 Z M290.443182,26.40625 C291.311688,24.9895833 291.832792,23.3958333 291.832792,21.8020833 C291.832792,18.7916667 290.616883,16.3125 288.358766,14.5416667 C286.100649,12.7708333 282.800325,11.8854167 278.805195,11.8854167 L268.904221,11.8854167 L268.904221,44.1145833 L277.415584,44.1145833 L277.415584,29.4166667 L277.589286,29.4166667 L284.537338,44.1145833 L293.569805,44.1145833 L286.795455,29.59375 C288.185065,28.8854167 289.400974,27.8229167 290.443182,26.40625 Z M277.241883,25.875 L277.241883,18.2604167 C279.326299,18.2604167 280.715909,18.6145833 281.584416,19.3229167 C282.452922,20.03125 282.800325,21.09375 282.800325,22.5104167 C282.974026,24.6354167 281.063312,25.6979167 277.241883,25.875 Z M296.696429,15.78125 C293.569805,18.96875 292.006494,22.8645833 292.006494,27.6458333 C292.006494,32.78125 293.569805,37.03125 296.522727,40.21875 C299.649351,43.40625 303.644481,45 308.508117,45 C309.897727,45 311.63474,44.8229167 313.371753,44.2916667 L313.371753,36.6770833 C311.808442,37.2083333 310.418831,37.3854167 309.202922,37.3854167 C306.771104,37.3854167 304.86039,36.5 303.297078,34.90625 C301.733766,33.1354167 301.038961,31.0104167 301.038961,28 C301.038961,25.34375 301.733766,23.0416667 303.297078,21.4479167 C304.86039,19.6770833 306.597403,18.7916667 308.855519,18.7916667 C310.24513,18.7916667 311.808442,18.96875 313.545455,19.5 L313.545455,11.8854167 C311.982143,11.53125 310.24513,11.3541667 308.508117,11.3541667 C303.818182,11 299.823052,12.59375 296.696429,15.78125 Z M324.314935,37.2083333 L324.314935,31.3645833 L331.784091,31.3645833 L331.784091,24.6354167 L324.314935,24.6354167 L324.314935,18.7916667 L333,18.7916667 L333,11.8854167 L315.803571,11.8854167 L315.803571,44.1145833 L333,44.1145833 L333,37.2083333 L324.314935,37.2083333 Z" id="Shape" fill="#000000"></path>
        </g>
        <rect id="Rectangle-3" fill="#D8D8D8" fill-rule="nonzero" opacity="0.305245536" x="35" y="168" width="442" height="310" rx="6"></rect>
        <g id="Group" transform="translate(114.000000, 187.000000)" fill-rule="nonzero">
            <g id="zip-outline" transform="translate(207.079850, 87.841664) rotate(10.000000) translate(-207.079850, -87.841664) translate(143.579850, 9.841664)">
                <polygon id="Path-3" fill="#FFFFFF" points="10.4944581 6.63787573 92.6189484 5.41120614 107.971157 12.4399968 120.006649 24.1549857 122.494024 38.2615874 122.043873 150.085487 5.25307464 151.171558 3.8450823 7.81034008"></polygon>
                <path d="M97.2038462,5.68434189e-14 L9.76923077,5.68434189e-14 C4.39615385,5.68434189e-14 0,4.3875 0,9.75 L0,146.25 C0,151.6125 4.39615385,156 9.76923077,156 L117.230769,156 C122.603846,156 127,151.6125 127,146.25 L127,27.05625 L97.2038462,5.68434189e-14 Z M100.134615,15.84375 L109.415385,24.375 L100.134615,24.375 L100.134615,15.84375 Z M9.76923077,146.25 L9.76923077,9.75 L61.0576923,9.75 L61.0576923,19.5 L75.7115385,19.5 L75.7115385,9.75 L90.3653846,9.75 L90.3653846,34.125 L117.230769,34.125 L117.230769,146.25 L9.76923077,146.25 Z" id="Shape" fill="#000000"></path>
                <polygon id="Shape" fill="#000000" points="55 106.833333 55 102 32.9583333 102 32.9583333 107.316667 46.1354167 107.316667 32 125.925 32 131 55 131 55 125.683333 40.3854167 125.683333"></polygon>
                <rect id="Rectangle-path" fill="#000000" x="60" y="102" width="7" height="29"></rect>
                <path d="M95.0103093,107.591667 C94.5154639,106.383333 93.5257732,105.658333 92.5360825,104.933333 C91.5463918,104.208333 90.3092784,103.725 88.8247423,103.483333 C87.3402062,103.241667 85.8556701,103 84.1237113,103 L72,103 L72,132 L79.1752577,132 L79.1752577,120.641667 L84.1237113,120.641667 C87.8350515,120.641667 90.8041237,119.916667 92.7835052,118.466667 C94.7628866,117.016667 96,114.841667 96,111.941667 C96,110.008333 95.7525773,108.558333 95.0103093,107.591667 Z M88.5773196,113.391667 C88.3298969,113.875 87.8350515,114.116667 87.3402062,114.358333 C86.8453608,114.6 86.3505155,114.841667 85.6082474,114.841667 C84.8659794,114.841667 84.371134,115.083333 83.628866,115.083333 L79.1752577,115.083333 L79.1752577,108.075 L83.628866,108.075 C85.6082474,108.075 86.8453608,108.316667 87.8350515,108.8 C88.3298969,109.041667 88.5773196,109.283333 88.8247423,109.766667 C89.0721649,110.25 89.0721649,110.733333 89.0721649,111.458333 C88.8247423,112.425 88.8247423,112.908333 88.5773196,113.391667 Z" id="Shape" fill="#000000"></path>
                <rect id="Rectangle-path" fill="#000000" x="46" y="19" width="15" height="10"></rect>
                <rect id="Rectangle-path" fill="#000000" x="61" y="29" width="15" height="10"></rect>
                <rect id="Rectangle-path" fill="#000000" x="46" y="39" width="15" height="10"></rect>
                <path d="M46,58.8666667 L46,71.2 C46,75.1466667 47.4621849,78.8466667 50.1428571,81.56 C52.8235294,84.2733333 56.4789916,86 60.3781513,86 C68.4201681,86 75,79.34 75,71.2 L75,58.8666667 L75,49 L60.3781513,49 L60.3781513,58.8666667 L46,58.8666667 Z M65.4957983,71.4466667 C65.4957983,74.16 63.302521,76.38 60.6218487,76.38 L60.6218487,81.3133333 L60.6218487,76.38 C59.4033613,76.38 58.1848739,75.8866667 57.210084,74.9 C56.2352941,73.9133333 55.7478992,72.68 55.7478992,71.4466667 L55.7478992,68.98 L65.4957983,68.98 L65.4957983,71.4466667 Z" id="Shape" fill="#000000"></path>
            </g>
            <g id="invoice-download-icon" transform="translate(85.478645, 87.455691) rotate(-11.000000) translate(-85.478645, -87.455691) translate(12.978645, 12.455691)">
                <polygon id="Path-2" fill="#FFFFFF" points="28.8515625 7 100.146484 7 121.925781 31.3554687 134.597656 39.6152344 134.597656 143.572266 134.597656 149.898437 39.0332031 149.898438 23.5449219 118.111328 23.5449219 7"></polygon>
                <path d="M113.571429,60.1730769 C113.571429,58.6448718 112.238095,57.3076923 110.714286,57.3076923 L53.5714286,57.3076923 C52.047619,57.3076923 50.7142857,58.6448718 50.7142857,60.1730769 C50.7142857,61.7012821 52.047619,63.0384615 53.5714286,63.0384615 L110.714286,63.0384615 C112.428571,63.0384615 113.571429,61.7012821 113.571429,60.1730769 Z M53.5714286,45.8461538 L86.9047619,45.8461538 C88.4285714,45.8461538 89.7619048,44.5089744 89.7619048,42.9807692 C89.7619048,41.4525641 88.4285714,40.1153846 86.9047619,40.1153846 L53.5714286,40.1153846 C52.047619,40.1153846 50.7142857,41.4525641 50.7142857,42.9807692 C50.7142857,44.5089744 52.047619,45.8461538 53.5714286,45.8461538 Z M133.571429,28.6538462 C130.142857,25.9794872 126.142857,24.2602564 121.571429,23.3051282 C120.809524,18.9115385 119.095238,14.9 116.428571,11.4615385 C111.285714,4.58461538 102.904762,0 93.5714286,0 L30.7142857,0 C27.4761905,0 25,2.48333333 25,5.73076923 L25,68.7692308 L36.4285714,68.7692308 L36.4285714,11.4615385 L93.5714286,11.4615385 C101.190476,11.4615385 107.857143,16.6192308 109.952381,23.6871795 C110.52381,25.2153846 110.714286,26.9346154 110.714286,28.6538462 C110.714286,31.3282051 110.142857,33.8115385 109,36.1038462 C111.285714,34.9576923 113.761905,34.3846154 116.428571,34.3846154 C118.142857,34.3846154 119.857143,34.575641 121.380952,35.1487179 C128.428571,37.25 133.571429,43.9358974 133.571429,51.5769231 L133.571429,137.538462 L69.5714286,137.538462 L58.1428571,149 L139.285714,149 C142.52381,149 145,146.516667 145,143.269231 L145,51.5769231 C145,42.2166667 140.619048,33.8115385 133.571429,28.6538462 Z" id="Shape" stroke="#000000" stroke-width="2" fill="#000000"></path>
                <polygon id="Shape" fill="#000000" points="57.0071259 108.75 57.0071259 80 22.8028504 80 22.8028504 108.75 0 108.75 39.9049881 149 80 108.75"></polygon>
            </g>
        </g>
        <text id="PDF-Invoice-Bulk-Dow" font-family="PTSans-Bold, PT Sans" font-size="38" font-weight="bold" fill="#223D65">
            <tspan x="119.181" y="410">PDF Invoice Bulk</tspan>
            <tspan x="173.996" y="454">Download</tspan>
        </text>
    </g>
</svg>