<?xml version="1.0" encoding="UTF-8"?>
<svg width="20px" viewBox="0 0 77 80" version="1.1" xmlns="http://www.w3.org/2000/svg" xmlns:xlink="http://www.w3.org/1999/xlink">
    <g id="Page-1" stroke="none" stroke-width="1" fill="none" fill-rule="evenodd">
        <g id="invoice-download-icon" transform="translate(0.000000, 1.000000)" fill="#ffffff" fill-rule="nonzero">
            <path d="M59.5,31.5 C59.5,30.7 58.8,30 58,30 L28,30 C27.2,30 26.5,30.7 26.5,31.5 C26.5,32.3 27.2,33 28,33 L58,33 C58.9,33 59.5,32.3 59.5,31.5 Z M28,24 L45.5,24 C46.3,24 47,23.3 47,22.5 C47,21.7 46.3,21 45.5,21 L28,21 C27.2,21 26.5,21.7 26.5,22.5 C26.5,23.3 27.2,24 28,24 Z M70,15 C68.2,13.6 66.1,12.7 63.7,12.2 C63.3,9.9 62.4,7.8 61,6 C58.3,2.4 53.9,0 49,0 L16,0 C14.3,0 13,1.3 13,3 L13,36 L19,36 L19,6 L49,6 C53,6 56.5,8.7 57.6,12.4 C57.9,13.2 58,14.1 58,15 C58,16.4 57.7,17.7 57.1,18.9 C58.3,18.3 59.6,18 61,18 C61.9,18 62.8,18.1 63.6,18.4 C67.3,19.5 70,23 70,27 L70,72 L36.4,72 L30.4,78 L73,78 C74.7,78 76,76.7 76,75 L76,27 C76,22.1 73.7,17.7 70,15 Z" id="Shape" stroke="#ffffff" stroke-width="2"></path>
            <polygon id="Shape" points="30 57 30 42 12 42 12 57 0 57 21 78 42.1 57"></polygon>
        </g>
    </g>
</svg>